<svg width="978" height="1016" xmlns="http://www.w3.org/2000/svg" xmlns:xlink="http://www.w3.org/1999/xlink" xml:space="preserve" overflow="hidden">
  <style>                             .favicon{fill:#000}
    @media(prefers-color-scheme:dark){.favicon{fill:#FFF}}
  </style>
  <defs>
    <clipPath id="clip0">
      <rect x="1550" y="848" width="978" height="1016"/>
    </clipPath>
  </defs>
  <g clip-path="url(#clip0)" transform="translate(-1550 -848)">
    <path class="favicon" d="M2033.09 1742.13C2060.45 1742.13 2074.13 1762.44 2074.13 1803.06 2074.13 1836.66 2062.02 1853.45 2037.78 1853.45L1580.49 1853.45C1560.16 1853.45 1550 1835.49 1550 1799.55 1550 1787.83 1552.35 1776.5 1557.04 1765.56 1562.51 1750.72 1570.32 1743.3 1580.49 1743.3ZM1768.1 1160.89 2001.43 1160.89C2035.05 1160.89 2051.85 1178.46 2051.85 1213.62 2051.85 1242.53 2027.62 1256.98 1979.16 1256.98L1816.17 1255.81C1716.89 1255.81 1667.26 1293.69 1667.26 1369.46 1667.26 1411.21 1679.76 1440.97 1704.78 1458.74 1725.88 1473.45 1760.67 1480.02 1809.14 1478.46L1955.71 1478.46C2016.68 1476.9 2047.16 1495.29 2047.16 1533.63 2047.16 1564.82 2032.31 1580.41 2002.61 1580.41L1751.68 1580.41C1697.74 1578.85 1652.01 1556.58 1614.49 1513.62 1578.53 1472.99 1560.55 1422.6 1560.55 1362.45 1560.55 1303.85 1580.49 1255.81 1620.35 1218.31 1659.44 1180.03 1708.69 1160.89 1768.1 1160.89ZM2302.87 848 2481.1 848C2495.17 848 2506.5 853.273 2515.1 863.82 2523.7 874.367 2528 886.281 2528 899.562 2528 916.749 2523.7 929.444 2515.1 937.647 2506.5 945.85 2494.39 949.952 2478.75 949.952L2302.87 949.952 2302.87 1815.95C2302.87 1847.98 2286.06 1864 2252.45 1864 2239.16 1864 2227.24 1859.31 2216.69 1849.94 2206.13 1840.56 2200.86 1829.24 2200.86 1815.95L2200.86 949.952C2200.07 881.984 2234.08 848 2302.87 848Z" fill-rule="evenodd"/>
  </g>
</svg>