<svg xmlns="http://www.w3.org/2000/svg" viewBox="0 0 512 512">
  <path d="m 381.66016,119.13892 c -22.96273,0.26179 -62.4668,27.85742 -62.4668,27.85742 -20,-5.6 -41.50078,-8.5 -62.80078,-8.5 -21.3,0 -42.79883,2.9 -62.79883,8.5 0,0 -48.1,-33.5 -69,-27 -13.7,34.6 -5.19961,61.40039 -2.59961,67.90039 -16,17.6 -23.601562,31.40039 -23.601562,58.90039 0,96.2 56.400782,104.3 112.300782,110.5 -7.2,6.6 -13.7,17.69922 -16,33.69922 -14.3,6.6 -51.00039,17.69961 -72.90039,-20.90039 -13.7,-23.8 -38.599611,-25.79883 -38.599611,-25.79883 -24.5,-0.3 -1.599609,15.39844 -1.599609,15.39844 16.4,7.5 27.79883,36.60156 27.79883,36.60156 14.7,44.8 84.70117,29.79883 84.70117,29.79883 0,21 0.29883,55.20039 0.29883,61.40039 0,6.06589 -3.92131,13.34706 -14.84766,12.42383 24.56585,7.9629 50.22468,12.04004 76.04883,12.08399 25.76676,-0.10151 51.3603,-4.21796 75.85937,-12.20118 -9.42435,-0.0375 -12.95898,-6.80871 -12.95898,-12.50586 0,-8.2 0.29883,-49.90156 0.29883,-83.60156 0,-23.5 -7.8,-38.49844 -17,-46.39844 55.9,-6.3 114.80078,-14 114.80078,-110.5 0,-27.4 -9.80078,-41.20039 -25.80078,-58.90039 2.6,-6.5 11.10039,-33.20039 -2.59961,-67.90039 -1.95937,-0.61875 -4.15775,-0.8845 -6.5332,-0.85742 z M 96.238281,352.1897 c 0.611133,-0.0176 1.304688,0.0816 2.054688,0.30664 2.000001,1 3.000781,2.60039 2.300781,3.90039 -0.699999,1.4 -2.700781,1.69922 -4.300781,0.69922 -2,-1 -2.998828,-2.60039 -2.298828,-3.90039 0.4375,-0.625 1.225585,-0.97657 2.24414,-1.00586 z m 10.349609,8.42969 c 1.13184,0.0283 2.40625,0.67773 3.40625,1.67773 1.7,1.9 1.99922,4.19922 0.69922,5.19922 -1.3,1.3 -3.59922,0.6 -5.19922,-1 -1.7,-1.9 -2.00117,-4.19922 -0.70117,-5.19922 0.4875,-0.4875 1.11582,-0.69472 1.79492,-0.67773 z m 10.32031,12.91211 c 1.3308,0.10688 2.7668,1.05508 3.68555,2.56445 1.6,2.3 1.6,4.90117 0,6.20117 -1.3,1 -3.99961,-7.8e-4 -5.59961,-2.30078 -1.6,-2.3 -1.6,-4.90039 0,-5.90039 0.4,-0.325 0.86093,-0.50546 1.35156,-0.55859 0.18399,-0.0199 0.37239,-0.0211 0.5625,-0.006 z m 12.06641,14.26953 c 1.27257,0.0781 2.71484,0.73828 3.91797,1.99609 2,1.9 2.60078,4.89922 1.30078,6.19922 -1.3,1.6 -4.2,1.3 -6.5,-1 -2.3,-1.9 -2.90078,-4.89922 -1.30078,-6.19922 0.4875,-0.6 1.21504,-0.93379 2.04883,-0.99414 0.1737,-0.0126 0.3514,-0.0131 0.5332,-0.002 z m 17.65234,10.97852 c 0.64844,-0.0266 1.3168,0.0418 1.9668,0.21679 3,0.9 4.89883,3.19922 4.29883,5.19922 -0.6,2 -3.59922,3 -6.19922,2 -3,-0.6 -5.00078,-2.89844 -4.30078,-4.89844 0.525,-1.5 2.28906,-2.43788 4.23437,-2.51757 z m 41.04102,0.77734 c 2.46367,0.0738 4.56367,1.27695 4.82617,2.93945 0.3,2 -1.70156,3.89961 -4.60156,4.59961 -3,0.7 -5.59844,-0.59961 -5.89844,-2.59961 -0.3,-2.3 1.69961,-4.20039 4.59961,-4.90039 0.3625,-0.0375 0.72227,-0.0496 1.07422,-0.0391 z m -18.67188,2.61328 c 2.50742,0.13671 4.49805,1.61445 4.49805,3.62695 0,2 -2.30117,3.59961 -5.20117,3.59961 -3.3,0.3 -5.59961,-1.29961 -5.59961,-3.59961 0,-2 2.29922,-3.60156 5.19922,-3.60156 0.375,-0.0375 0.7453,-0.0449 1.10351,-0.0254 z"/>
</svg>
